<svg xmlns="http://www.w3.org/2000/svg" width="800" height="560" viewBox="0 0 800 560"><rect width="800" height="560" fill="#e8ddd5"/><path d="M0 460L800 60M0 500L800 100M0 540L800 140" stroke="#d8c9bd"/><rect x="54" y="79" width="249" height="352" rx="10" fill="#cdbbad"/><rect x="54" y="66" width="249" height="352" rx="10" fill="#fffdf9"/><rect x="339" y="150" width="407" height="275" rx="10" fill="#cdbbad"/><rect x="339" y="137" width="407" height="275" rx="10" fill="#fffdf9"/><text x="77" y="105" font-family="Arial,sans-serif" font-size="10" letter-spacing="1.3" fill="#7a5b49">LIFESHIFT / SCENARIO CARD</text><text x="365" y="176" font-family="Arial,sans-serif" font-size="10" letter-spacing="1.3" fill="#7a5b49">LIFESHIFT / SCENARIO CARD</text><text x="77" y="143" font-family="Georgia,serif" font-size="25" fill="#2d2c26">Austin job offer</text><text x="365" y="214" font-family="Georgia,serif" font-size="29" fill="#2d2c26">Austin job offer</text><g fill="#d5d2cb"><rect x="77" y="168" width="201" height="7" rx="3"/><rect x="77" y="188" width="201" height="7" rx="3"/><rect x="77" y="208" width="182" height="7" rx="3"/><rect x="77" y="228" width="195" height="7" rx="3"/><rect x="77" y="248" width="145" height="7" rx="3"/><rect x="365" y="240" width="352" height="7" rx="3"/><rect x="365" y="260" width="352" height="7" rx="3"/><rect x="365" y="280" width="247" height="7" rx="3"/></g><rect x="77" y="347" width="201" height="44" rx="5" fill="#292a25"/><text x="178" y="375" text-anchor="middle" font-family="Arial,sans-serif" font-size="12" fill="#fff">Compare scenario →</text><rect x="365" y="341" width="355" height="44" rx="5" fill="#292a25"/><text x="542" y="369" text-anchor="middle" font-family="Arial,sans-serif" font-size="12" fill="#fff">Compare scenario →</text><path d="M70 465H284M357 465H728" stroke="#a48570"/><path d="M70 460V470M284 460V470M357 460V470M728 460V470" stroke="#a48570"/><text x="177" y="493" text-anchor="middle" font-family="Arial,sans-serif" font-size="11" letter-spacing="2" fill="#7a5b49">NARROW</text><text x="542" y="493" text-anchor="middle" font-family="Arial,sans-serif" font-size="11" letter-spacing="2" fill="#7a5b49">WIDE</text></svg>
